HIERARCHY
ROOT Hips
{
  OFFSET 0 0 0
  CHANNELS 6 Xposition Yposition Zposition Zrotation Yrotation Xrotation
  JOINT LeftThigh
  {
    OFFSET 8.409438 0 -5.917753
    CHANNELS 3 Zrotation Yrotation Xrotation
    JOINT LeftLeg
    {
      OFFSET 0 0 -42.358652
      CHANNELS 3 Zrotation Yrotation Xrotation
      JOINT LeftFoot
      {
        OFFSET 0 0 -39.357303
        CHANNELS 3 Zrotation Yrotation Xrotation
      }
    }
  }
  JOINT RightThigh
  {
    OFFSET -8.409438 0 -5.917753
    CHANNELS 3 Zrotation Yrotation Xrotation
    JOINT RightLeg
    {
      OFFSET 0 0 -42.358652
      CHANNELS 3 Zrotation Yrotation Xrotation
      JOINT RightFoot
      {
        OFFSET 0 0 -39.357303
        CHANNELS 3 Zrotation Yrotation Xrotation
      }
    }
  }
  JOINT SpineLow
  {
    OFFSET 0 0 4.719101
    CHANNELS 3 Zrotation Yrotation Xrotation
    JOINT SpineMid
    {
      OFFSET 0 0 12.899191
      CHANNELS 3 Zrotation Yrotation Xrotation
      JOINT Chest
      {
        OFFSET 0 0 12.899191
        CHANNELS 3 Zrotation Yrotation Xrotation
        JOINT LeftShoulder
        {
          OFFSET 7.550562 1.41573 9.438202
          CHANNELS 3 Zrotation Yrotation Xrotation
          JOINT LeftArm
          {
            OFFSET 9.155056 0 4.247191
            CHANNELS 3 Zrotation Yrotation Xrotation
            JOINT LeftForearm
            {
              OFFSET 0 0 25.771955
              CHANNELS 3 Zrotation Yrotation Xrotation
              JOINT LeftHand
              {
                OFFSET 0 0 25.197169
                CHANNELS 3 Zrotation Yrotation Xrotation
              }
            }
          }
        }
        JOINT RightShoulder
        {
          OFFSET -7.550562 1.41573 9.438202
          CHANNELS 3 Zrotation Yrotation Xrotation
          JOINT RightArm
          {
            OFFSET -9.155056 0 4.247191
            CHANNELS 3 Zrotation Yrotation Xrotation
            JOINT RightForearm
            {
              OFFSET 0 0 -25.771955
              CHANNELS 3 Zrotation Yrotation Xrotation
              JOINT RightHand
              {
                OFFSET 0 0 -25.197169
                CHANNELS 3 Zrotation Yrotation Xrotation
              }
            }
          }
        }
        JOINT Neck
        {
          OFFSET 0 0 15.101124
          CHANNELS 3 Zrotation Yrotation Xrotation
          JOINT Head
          {
            OFFSET 0 0 11.325843
            CHANNELS 3 Zrotation Yrotation Xrotation
            End Site
            {
              OFFSET 0 0 14.157303
            }
          }
        }
      }
    }
  }
}
MOTION
Frames: 11
Frame Time: 0.0
0.0  93.25843  0.0  -111.104371  37.297653  171.691871  54.161782  -38.294959  -64.769209  -14.591119  14.735487  13.123831  -3.956074  -2.163643  0.941109  3.800945  9.779359  -39.614776  -15.962313  22.805591  37.626373  -2.478349  0.175919  2.029559  1.454717  -2.336847  -0.963623  4.080455  -6.325543  -2.781613  4.080455  -6.325543  -2.781613  -29.122074  22.186115  6.112092  127.61973  46.467082  -155.068311  -23.497324  -1.665047  76.63529  37.215273  5.341303  3.284956  -7.312608  -12.968383  21.14398  57.409539  50.610797  8.94823  -26.817348  -14.945792  -111.683242  65.603986  10.597575  19.679432  -18.550102  -6.357829  11.033963  -13.78857  -5.110504  8.082128  
0.0  93.25843  0.0  -110.971664  37.837511  171.814284  54.131683  -37.168428  -64.312382  -15.412753  14.550393  13.317602  -3.880899  -2.110133  0.922721  4.87684  8.551392  -39.514807  -16.189458  23.692056  39.254509  -2.631403  0.357115  2.061321  1.438332  -2.310595  -1.015714  4.03915  -6.251311  -2.921008  4.03915  -6.251311  -2.921008  -29.258346  22.229068  6.237741  127.25062  46.864849  -155.275952  -23.518408  -1.986053  76.302526  37.349247  5.182202  3.559587  -8.029887  -12.648551  21.47985  58.445429  49.651711  9.465864  -25.689623  -14.88254  -113.076646  65.636961  11.167912  19.293059  -18.521952  -6.249348  11.147518  -13.768879  -5.032  8.17119  
0.0  93.25843  0.0  -110.680937  38.387991  172.038241  53.968059  -36.434112  -63.655558  -15.829716  14.428442  13.428187  -3.870427  -2.09038  0.926876  6.427893  7.600299  -39.411502  -16.83288  24.460586  40.915265  -2.668272  0.460164  2.032283  1.425141  -2.296069  -1.047643  4.005235  -6.210268  -3.00627  4.005235  -6.210268  -3.00627  -29.29152  22.209875  6.231565  126.669507  47.186174  -155.506362  -23.614593  -2.359043  75.930847  37.422967  5.012321  3.818428  -8.662886  -12.29328  21.657369  59.859595  48.814125  9.924737  -24.568836  -14.861526  -114.379105  65.903709  11.598373  19.279786  -18.411128  -6.156119  11.147711  -13.687932  -4.959908  8.175457  
0.0  93.25843  0.0  -110.877185  38.929479  171.559581  53.131403  -36.316527  -62.597037  -16.085183  14.394146  13.521914  -3.608302  -2.082668  0.890483  7.712491  6.779384  -38.976202  -17.56083  25.019698  42.648478  -2.683017  0.475509  1.962532  1.327691  -2.280996  -1.016654  3.734529  -6.175443  -2.911296  3.734529  -6.175444  -2.911296  -28.821055  21.670003  5.342566  125.314335  46.38701  -156.066814  -23.773693  -2.717469  75.547522  37.467949  4.849372  3.977422  -9.145276  -12.041425  21.937657  60.768175  47.938658  10.359919  -23.235705  -14.630523  -115.978635  66.336709  11.913855  19.312257  -18.254901  -6.075061  11.094957  -13.57314  -4.894501  8.13998  
0.0  93.25843  0.0  -110.517484  39.508957  171.809415  52.898184  -36.173321  -61.835641  -15.936618  14.444958  13.564724  -3.437915  -2.062102  0.8807  9.171533  5.932466  -39.016335  -18.144561  25.383246  44.415152  -2.65892  0.42876  1.88589  1.279578  -2.267669  -1.039006  3.604087  -6.139978  -2.967243  3.604087  -6.139978  -2.967243  -28.763275  21.626292  5.261172  124.771027  46.631028  -156.294247  -23.967858  -2.915481  75.15494  37.516428  4.674857  4.021799  -9.481756  -11.814941  22.201782  61.655533  47.265999  10.598934  -22.152248  -14.300949  -117.141351  66.859906  12.069231  19.356843  -18.040663  -6.015844  11.042694  -13.414343  -4.844456  8.104634  
0.0  93.25843  0.0  -111.054226  40.134925  170.733824  51.544356  -36.710148  -60.351992  -15.87363  14.76041  13.589367  -3.138039  -2.093166  0.775674  9.737004  4.956468  -38.321791  -18.582982  25.584978  46.060117  -2.640691  0.409607  1.853193  1.110868  -2.236907  -0.960452  3.133065  -6.067504  -2.734739  3.133065  -6.067504  -2.734739  -28.779329  21.578947  5.201418  124.459275  46.888876  -156.340814  -24.146182  -2.868521  74.717064  37.594914  4.499052  3.949677  -9.462772  -11.685191  22.340581  61.650071  46.541581  10.691599  -20.955495  -13.775664  -118.361974  67.436671  12.048425  19.330523  -17.896254  -5.964653  11.003217  -13.307584  -4.802155  8.077962  
0.0  93.25843  0.0  -110.593331  40.776205  171.061539  51.378862  -36.767958  -59.614349  -15.299376  14.933754  13.722722  -3.234743  -2.097783  0.724869  10.707308  3.761723  -38.33398  -18.88322  25.690894  47.475562  -2.707664  0.428347  1.862805  1.071941  -2.216694  -0.980963  3.027319  -6.012973  -2.786328  3.027319  -6.012973  -2.786328  -28.943169  21.537465  5.205069  124.525322  47.284617  -156.123637  -24.230551  -2.612654  74.244976  37.765658  4.320689  3.816744  -9.90489  -11.491222  22.656417  61.934316  46.112877  10.697563  -19.855803  -13.145161  -119.419861  67.985918  11.883046  19.177068  -17.770528  -5.957265  10.939526  -13.214062  -4.792397  8.03154  
0.0  93.25843  0.0  -110.509099  41.417683  170.907553  50.785407  -36.898585  -58.653561  -14.848473  15.105087  13.808058  -3.280895  -2.115216  0.703635  11.078664  2.269763  -37.935052  -19.020724  25.696435  48.581497  -2.872793  0.479996  1.907646  1.02527  -2.195831  -0.993126  2.899551  -5.957442  -2.814381  2.899551  -5.957442  -2.814381  -29.378716  21.537769  5.24378  124.654525  47.612096  -155.787654  -24.219028  -2.316042  73.763667  37.941174  4.093156  3.779905  -10.70227  -11.26512  23.042758  62.090341  45.809786  10.743126  -18.774695  -12.528205  -120.393603  68.352355  11.73514  18.852993  -17.958024  -5.884692  11.001185  -13.355684  -4.743198  8.078463  
0.0  93.25843  0.0  -110.233742  42.086007  171.142356  50.340435  -36.821094  -57.872031  -14.450993  15.296977  13.923109  -3.241771  -2.148223  0.719879  11.385254  0.640739  -37.628749  -19.176986  25.68657  49.395077  -3.064985  0.548589  1.970255  0.963141  -2.181195  -1.021146  2.731148  -5.918974  -2.884869  2.731148  -5.918974  -2.884868  -29.709228  21.622681  5.26685  124.789573  48.068386  -155.477634  -24.093569  -2.218112  73.350574  38.04263  3.767867  3.925455  -11.14446  -11.072725  23.224831  62.36062  45.518499  11.033759  -17.599151  -12.022166  -121.506902  68.7389  11.61452  18.627377  -17.905797  -5.848532  10.975776  -13.317555  -4.714324  8.06102  
0.0  93.25843  0.0  -110.264618  42.744604  170.935701  49.721967  -36.726764  -56.998114  -14.071592  15.34127  14.114557  -3.056883  -2.08163  0.622627  11.28318  -1.13934  -36.770262  -19.481011  25.651666  49.743073  -3.201896  0.642565  2.0447  0.835529  -2.169365  -1.007429  2.379762  -5.892829  -2.835377  2.379762  -5.89283  -2.835377  -29.973637  21.713141  5.264094  124.777663  48.514166  -155.207549  -23.879055  -2.386124  73.022263  38.039032  3.352089  4.213609  -11.792045  -10.802838  23.486026  63.302936  45.369612  11.633344  -17.032714  -11.868301  -121.947496  68.715017  12.028347  17.667044  -17.91547  -5.726774  11.022189  -13.327103  -4.624452  8.099657  
0.0  93.25843  0.0  -109.945176  43.432157  171.21605  49.268504  -36.432163  -56.165169  -13.744403  15.401736  14.270162  -3.133348  -2.045874  0.599502  11.465736  -2.933822  -36.110242  -19.994166  25.751825  49.900997  -3.243603  0.738766  2.11662  0.732855  -2.176649  -1.02131  2.100072  -5.916755  -2.864525  2.100072  -5.916755  -2.864525  -30.090952  21.89863  5.209822  124.428944  48.943668  -155.061089  -23.619606  -2.7608  72.754141  37.91941  2.840507  4.578576  -11.965335  -10.513717  23.437495  64.370455  44.975424  12.508846  -15.965306  -11.78073  -123.070924  69.112633  12.313585  17.5387  -17.719792  -5.601804  10.963364  -13.183644  -4.525251  8.061147  
